<svg width="100" height="100" viewBox="0 0 100 100" fill="none" xmlns="http://www.w3.org/2000/svg">
<path d="M69.9269 61.8946L73.9484 44.0196C74.2387 42.729 73.2676 41.5 71.9575 41.5H38.5437L37.764 37.6491C37.5697 36.6893 36.7336 36 35.7638 36H27.0417C25.9141 36 25 36.9234 25 38.0625V39.4375C25 40.5766 25.9141 41.5 27.0417 41.5H32.9866L38.9625 71.0139C37.5329 71.8445 36.5694 73.4019 36.5694 75.1875C36.5694 77.8454 38.7023 80 41.3333 80C43.9644 80 46.0972 77.8454 46.0972 75.1875C46.0972 73.8405 45.5488 72.6236 44.666 71.75H62.5006C61.6179 72.6236 61.0695 73.8405 61.0695 75.1875C61.0695 77.8454 63.2023 80 65.8333 80C68.4644 80 70.5972 77.8454 70.5972 75.1875C70.5972 73.2821 69.5009 71.6355 67.9108 70.8558L68.3801 68.7696C68.6705 67.479 67.6994 66.25 66.3893 66.25H43.5551L42.9983 63.5H67.936C68.8893 63.5 69.7157 62.8336 69.9269 61.8946Z" fill="#D75E86"/>
<path d="M65.7524 25.4514L52.8254 23.3903C52.6416 23.361 52.4537 23.3706 52.2738 23.4185C52.094 23.4664 51.9261 23.5515 51.7812 23.6683L41.5889 31.8823C41.5663 31.9007 41.5534 31.9247 41.5315 31.9457C41.5003 31.9733 41.4648 31.9951 41.4373 32.0258C41.4141 32.0526 41.3988 32.0828 41.3773 32.1105C41.302 32.2053 41.242 32.3113 41.1996 32.4247C41.1834 32.4675 41.165 32.5067 41.1515 32.5489C41.1313 32.6269 41.1175 32.7065 41.1103 32.7868C41.1079 32.8245 41.0985 32.8614 41.0974 32.8988C41.0952 33.0202 41.1094 33.1413 41.1396 33.2589L44.5579 46.1028C44.6933 46.6114 45.1133 46.9907 45.6333 47.0737L58.5603 49.1348C58.747 49.1648 58.9339 49.1536 59.1111 49.1064C59.2887 49.0543 59.4534 48.9654 59.5946 48.8457L59.6032 48.8572L69.7955 40.6431C69.9959 40.4819 70.1452 40.266 70.2251 40.0215C70.3051 39.7771 70.3124 39.5147 70.246 39.2662L66.8277 26.4223C66.7618 26.1737 66.625 25.9496 66.4341 25.7772C66.2432 25.6049 66.0064 25.4917 65.7524 25.4514ZM52.9907 26.1095L62.3811 27.6057L54.9767 33.5718L53.0981 33.2726L45.5875 32.0752L52.9907 26.1095ZM46.9049 44.5856L44.2345 34.5519L54.2888 36.1548L56.9588 46.1872L46.9049 44.5856ZM59.5276 45.5035L56.8576 35.4712L64.785 29.0826L67.4554 39.1163L59.5276 45.5035Z" fill="#D75E86"/>
</svg>
